<svg width="192" height="438" viewBox="0 0 192 438" fill="none" xmlns="http://www.w3.org/2000/svg">
<path opacity="0.15" d="M162.851 415.7C158.647 414.14 144.995 413.863 144.995 413.863C141.47 411.406 141.185 410.9 136.886 411.096L74.0619 410.964C66.2311 411.324 49.0732 418.088 46.372 425.414C43.6265 432.861 54.7925 438.349 62.7501 437.983C62.7501 437.983 123.868 435.444 144.152 433.435C163.732 431.496 172.812 419.395 162.851 415.7Z" fill="#001177"/>
<path d="M51.9383 198.072L40.3228 218.757C38.0753 216.299 27.5608 211.877 22.8052 203.359C18.4795 204.555 14.8835 212.319 16.1343 216.357C25.0462 227.418 44.1729 247.056 49.769 241.951C58.5766 233.914 65.9446 215.037 65.9446 215.037L51.9383 198.072Z" fill="#FAC2A8"/>
<path d="M21.1965 208.34C21.1965 208.34 27.5808 207.748 26.6296 196.037C26.4277 193.579 25.2225 189.352 25.0792 187.987C24.9359 186.621 25.1313 181.783 26.2257 180.294C27.3267 178.805 28.0368 177.726 27.1508 176.633C26.2648 175.541 21.6851 174.832 19.633 179.273C17.5809 183.714 18.6493 187.447 18.6493 187.447C18.6493 187.447 15.0012 182.908 13.138 182.908C12.3302 182.908 3.93291 182.381 2.16746 184.482C1.49646 185.275 -0.22338 202.78 0.0241732 203.632C0.271727 204.49 8.34978 218.152 16.2845 216.787C19.9131 216.162 21.1965 208.762 21.1965 208.34Z" fill="#FAC2A8"/>
<path d="M4.61821 199.958C5.09377 199.744 5.53676 199.614 6.00581 199.568L7.41296 199.483C8.35757 199.438 9.30218 199.392 10.2859 199.457C10.5334 199.477 10.781 199.503 11.0546 199.575C11.3412 199.64 11.6539 199.835 11.8298 199.997C12.2402 200.342 12.5529 200.712 12.8591 201.09C13.465 201.863 13.9862 202.598 14.4747 203.502C14.6962 203.97 14.8656 204.451 14.9308 204.991C15.0024 205.524 14.9242 206.116 14.6506 206.617C14.3835 207.124 13.9601 207.501 13.5171 207.774C13.0676 208.054 12.592 208.236 12.11 208.359C11.6279 208.49 11.1458 208.574 10.6572 208.62C10.4162 208.646 10.1686 208.659 9.92106 208.665C9.66048 208.665 9.45853 208.678 9.11977 208.62C8.53346 208.438 8.15562 208.158 7.75823 207.859C7.56279 207.709 7.38039 207.553 7.19798 207.391C7.00905 207.215 6.86573 207.091 6.65075 206.844L7.19146 206.448C7.75823 206.981 8.61164 207.664 9.28915 207.872C9.41944 207.891 9.68654 207.891 9.89501 207.878C10.1165 207.865 10.3445 207.846 10.566 207.82C11.009 207.761 11.452 207.67 11.8754 207.547C12.7093 207.293 13.5236 206.877 13.8624 206.214C14.2207 205.563 14.0383 204.686 13.6604 203.925C13.491 203.574 13.1914 203.157 12.9503 202.787C12.6898 202.41 12.4292 202.026 12.1556 201.668C11.8819 201.311 11.5888 200.96 11.2761 200.693C11.1067 200.55 11.009 200.485 10.8396 200.433C10.6572 200.381 10.4422 200.355 10.2207 200.329C9.32824 200.251 8.39014 200.277 7.45856 200.303C6.52046 200.277 5.56282 200.537 4.61821 199.958Z" fill="#DC918B"/>
<path d="M5.01553 194.509C6.50085 194.151 7.94056 194.327 9.39983 194.405C10.1295 194.457 10.8591 194.509 11.6017 194.6C11.9796 194.658 12.3314 194.685 12.7679 194.841C13.2434 195.01 13.5366 195.341 13.8102 195.647C14.3183 196.291 14.618 197.006 14.859 197.721C15.1001 198.443 15.2629 199.178 15.3541 199.932C15.4519 200.68 15.4519 201.447 15.3411 202.214C15.2173 203.014 14.9502 203.691 14.5984 204.386L13.96 204.074C14.0968 203.762 14.2076 203.43 14.3053 203.099C14.416 202.761 14.4747 202.436 14.5203 202.104C14.5919 201.428 14.5463 200.732 14.4616 200.043C14.2662 198.677 13.8493 197.26 13.0806 196.219C12.8851 195.985 12.6636 195.751 12.4421 195.679C12.1946 195.575 11.8167 195.523 11.478 195.465C10.7744 195.361 10.0578 195.289 9.33468 195.224C7.89496 195.081 6.4357 195.088 5.01553 194.509Z" fill="#DC918B"/>
<path d="M14.7415 199.607C15.3995 199.145 15.9206 198.514 16.2073 197.786C16.5069 197.058 16.546 196.239 16.4744 195.432C16.2724 193.813 15.621 192.161 14.6112 190.893C14.0966 190.263 13.4842 189.736 12.748 189.541C11.9728 189.326 11.0999 189.268 10.2465 189.229C9.38653 189.183 8.51358 189.203 7.63412 189.164C7.19764 189.144 6.75465 189.105 6.31166 189.04C5.87519 188.956 5.40614 188.891 5.02178 188.631C5.46477 188.657 5.88821 188.579 6.32469 188.54C6.75465 188.501 7.19113 188.462 7.6276 188.435C8.50055 188.39 9.38002 188.396 10.266 188.409C11.152 188.435 12.0445 188.468 12.9695 188.696C13.9532 188.936 14.7415 189.599 15.3343 190.302C15.9467 191.017 16.3767 191.836 16.7219 192.682C17.0607 193.533 17.3017 194.411 17.406 195.341C17.5037 196.265 17.4125 197.246 17.0216 198.131C16.6438 199.022 15.9662 199.769 15.1584 200.264L14.7415 199.607Z" fill="#DC918B"/>
<path d="M17.1386 185.672C17.777 186.088 18.3373 186.576 18.7281 187.304C19.106 188.039 19.132 188.917 18.9627 189.671C18.7998 190.419 18.5588 191.18 18.005 191.83C17.7249 192.148 17.3471 192.402 16.9236 192.519C16.5197 192.649 16.0572 192.63 15.7314 192.61V191.895C16.1353 191.908 16.4155 191.914 16.7086 191.823C16.9953 191.739 17.2428 191.576 17.4448 191.342C17.8487 190.874 18.0832 190.204 18.2005 189.534C18.3242 188.865 18.2982 188.221 18.0506 187.623C17.8356 187.005 17.3536 186.433 17.1386 185.672Z" fill="#DC918B"/>
<path d="M10.2986 206.304C9.75137 206.493 9.20415 206.675 8.6439 206.779C8.08365 206.896 7.51036 206.961 6.93708 206.994C6.35729 207.007 5.77097 206.987 5.19769 206.864C4.63093 206.747 4.01204 206.539 3.61465 206.09C4.17491 206.252 4.7091 206.259 5.26284 206.259C5.81006 206.252 6.35729 206.239 6.91102 206.213C7.46476 206.2 8.02501 206.174 8.58527 206.174C9.139 206.187 9.71229 206.168 10.2986 206.304Z" fill="#DC918B"/>
<path d="M138.588 198.248L149.337 219.29C151.585 216.832 164.438 211.877 169.194 203.359C173.52 204.555 177.116 212.319 175.865 216.357C166.953 227.418 152.823 246.237 144.478 241.269C134.23 235.163 126.054 215.037 126.054 215.037L138.588 198.248Z" fill="#FAC2A8"/>
<path d="M170.804 208.34C170.804 208.34 164.419 207.748 165.37 196.037C165.572 193.579 166.778 189.352 166.921 187.987C167.064 186.621 166.869 181.783 165.774 180.294C164.673 178.805 163.963 177.726 164.849 176.633C165.735 175.541 170.315 174.832 172.367 179.273C174.419 183.714 173.351 187.447 173.351 187.447C173.351 187.447 176.999 182.908 178.862 182.908C179.67 182.908 188.067 182.381 189.833 184.482C190.504 185.275 192.223 202.78 191.976 203.632C191.728 204.49 183.65 218.152 175.715 216.787C172.08 216.162 170.797 208.762 170.804 208.34Z" fill="#FAC2A8"/>
<path d="M187.377 199.958C186.432 200.537 185.474 200.277 184.543 200.29C183.611 200.264 182.673 200.238 181.781 200.316C181.559 200.335 181.344 200.368 181.162 200.42C180.986 200.465 180.895 200.537 180.725 200.68C180.419 200.947 180.126 201.298 179.846 201.655C179.566 202.013 179.312 202.397 179.051 202.774C178.804 203.144 178.504 203.561 178.341 203.912C177.963 204.666 177.781 205.55 178.139 206.201C178.478 206.87 179.299 207.287 180.126 207.534C180.549 207.664 180.986 207.755 181.435 207.807C181.657 207.839 181.885 207.859 182.106 207.865C182.315 207.878 182.582 207.878 182.712 207.859C183.39 207.651 184.243 206.968 184.81 206.435L185.351 206.831C185.136 207.085 184.992 207.202 184.803 207.378C184.621 207.54 184.439 207.696 184.243 207.846C183.846 208.145 183.468 208.425 182.882 208.607C182.549 208.665 182.341 208.652 182.08 208.652C181.833 208.646 181.592 208.633 181.344 208.607C180.856 208.561 180.374 208.477 179.891 208.347C179.409 208.216 178.934 208.034 178.484 207.761C178.041 207.488 177.611 207.111 177.351 206.604C177.077 206.103 176.999 205.511 177.071 204.978C177.136 204.439 177.299 203.957 177.527 203.489C178.015 202.585 178.536 201.85 179.142 201.077C179.448 200.7 179.761 200.329 180.172 199.984C180.354 199.822 180.667 199.627 180.947 199.562C181.22 199.497 181.468 199.464 181.716 199.445C182.699 199.379 183.644 199.425 184.588 199.471L185.996 199.555C186.458 199.614 186.901 199.737 187.377 199.958Z" fill="#DC918B"/>
<path d="M186.979 194.509C185.559 195.088 184.1 195.075 182.66 195.224C181.937 195.289 181.22 195.361 180.517 195.465C180.178 195.523 179.8 195.575 179.552 195.679C179.331 195.751 179.109 195.985 178.914 196.219C178.139 197.26 177.722 198.677 177.533 200.043C177.448 200.732 177.403 201.428 177.474 202.104C177.52 202.436 177.579 202.754 177.689 203.099C177.787 203.43 177.898 203.769 178.035 204.074L177.396 204.386C177.051 203.691 176.784 203.014 176.653 202.214C176.543 201.447 176.543 200.68 176.64 199.932C176.738 199.184 176.901 198.443 177.136 197.721C177.383 197.006 177.683 196.291 178.184 195.647C178.458 195.341 178.751 195.01 179.227 194.841C179.657 194.685 180.015 194.658 180.393 194.6C181.136 194.509 181.865 194.457 182.595 194.405C184.054 194.327 185.494 194.151 186.979 194.509Z" fill="#DC918B"/>
<path d="M176.829 200.257C176.021 199.763 175.344 199.015 174.966 198.124C174.575 197.24 174.484 196.252 174.582 195.335C174.686 194.405 174.927 193.527 175.266 192.675C175.611 191.83 176.048 191.004 176.653 190.295C177.246 189.593 178.034 188.93 179.018 188.689C179.943 188.461 180.836 188.435 181.722 188.403C182.608 188.39 183.487 188.383 184.36 188.429C184.797 188.455 185.233 188.494 185.663 188.533C186.099 188.572 186.523 188.65 186.966 188.624C186.582 188.884 186.106 188.949 185.676 189.034C185.233 189.099 184.79 189.138 184.354 189.157C183.474 189.196 182.608 189.177 181.741 189.222C180.888 189.268 180.015 189.326 179.24 189.534C178.503 189.729 177.891 190.256 177.376 190.887C176.367 192.155 175.715 193.8 175.513 195.426C175.435 196.232 175.481 197.051 175.78 197.78C176.067 198.508 176.595 199.139 177.246 199.6L176.829 200.257Z" fill="#DC918B"/>
<path d="M174.856 185.672C174.647 186.433 174.159 187.005 173.937 187.61C173.69 188.201 173.657 188.852 173.788 189.521C173.905 190.191 174.139 190.861 174.543 191.329C174.745 191.563 174.993 191.726 175.279 191.81C175.573 191.901 175.853 191.901 176.257 191.882V192.597C175.937 192.617 175.475 192.636 175.064 192.506C174.647 192.389 174.263 192.135 173.983 191.817C173.429 191.173 173.188 190.406 173.025 189.658C172.856 188.91 172.882 188.026 173.26 187.291C173.657 186.569 174.217 186.088 174.856 185.672Z" fill="#DC918B"/>
<path d="M181.695 206.304C182.275 206.168 182.849 206.187 183.415 206.181C183.982 206.174 184.536 206.2 185.09 206.22C185.643 206.246 186.19 206.259 186.738 206.265C187.285 206.259 187.819 206.259 188.386 206.096C187.989 206.545 187.37 206.76 186.803 206.87C186.223 206.987 185.637 207.013 185.063 207C184.484 206.968 183.917 206.909 183.357 206.786C182.79 206.675 182.243 206.493 181.695 206.304Z" fill="#DC918B"/>
<path d="M81.9641 394.443V409.666L68.7526 408.398L69.8926 393.67L81.9641 394.443Z" fill="#FAC2A8"/>
<path d="M125.43 395.328V410.557L111.052 409.744V393.67L125.43 395.328Z" fill="#FAC2A8"/>
<path d="M126.817 403.664C128.198 403.391 133.983 408.053 142.465 410.55C142.465 410.55 152.53 411.409 157.964 416.058C160.035 417.827 158.895 421.208 156.179 421.345C147.768 421.767 130.179 422.209 110.362 420.083C110.362 420.083 106.186 413.639 110.759 405.043C115.006 408.151 119.879 408.157 124.961 407.201C124.961 407.201 125.436 403.944 126.817 403.664Z" fill="#2B2E3A"/>
<path d="M82.2116 405.517C81.4364 406.551 80.5113 407.039 79.4168 406.883C78.6807 406.792 83.052 402.279 74.2899 401.668C67.9708 401.226 68.9805 405.693 68.7525 405.296C68.5505 404.939 68.0294 404.204 68.0294 404.204C60.4855 416.422 53.8732 418.223 54.4921 423.881C55.111 429.538 57.9123 435.195 68.2769 433.413C78.6351 431.625 82.5113 426.56 82.9803 422.983C83.4494 419.413 82.2116 405.517 82.2116 405.517Z" fill="#2B2E3A"/>
<path d="M132.237 269.399L131.944 284.147C131.944 284.147 113.202 292.698 99.6188 294.284C89.3323 345.03 91.7818 348.457 90.8567 353.354C90.3942 355.799 87.6646 386.536 87.9577 387.999C88.2509 389.469 88.544 391.972 88.0815 393.669C87.7362 394.938 88.6092 401.642 88.6092 401.642C88.6092 401.642 84.492 402.825 79.2021 403.41C73.9123 403.996 67.1176 402.11 65.059 402.11C65.059 402.11 65.5997 398.527 65.033 396.303C64.5574 394.417 66.2121 392.102 65.6258 390.048C65.0395 387.993 64.1796 368.166 64.2317 356.605C64.2382 355.434 64.6486 338.313 66.1144 334.151C65.5281 296.898 65.6909 290.454 65.5932 288.581C65.2024 281.006 65.2024 271.46 65.2024 269.113C65.2024 266.765 71.2674 264.854 71.2674 264.854L132.237 269.399Z" fill="#474E64"/>
<path d="M131.944 284.147C131.944 284.147 129.977 329.522 129.977 331.57C129.977 333.625 128.491 390.178 129.078 391.647C129.664 393.117 130.576 400.335 130.576 400.335C130.576 400.335 124.524 402.734 120.505 403.04C116.83 403.319 115.071 403.508 105.085 401.161C105.925 395.165 105.834 388.494 105.834 386.439C105.834 384.384 104.752 371.171 104.752 367.939C104.752 364.714 102.049 345.596 104.107 337.533C104.733 335.088 102.987 293.764 102.987 293.764C102.987 293.764 114.896 290.818 131.944 284.147Z" fill="#343948"/>
<path d="M101.397 268.957C101.41 270.407 101.384 271.85 101.371 273.3C101.365 274.75 101.312 276.194 101.28 277.638C101.221 280.531 101.123 283.418 101.006 286.312L100.57 285.857L105.462 285.844L105.013 286.267L105.371 279.998C105.495 277.911 105.651 275.823 105.807 273.736L105.827 273.476L106.068 273.456C107.26 273.365 108.459 273.248 109.651 273.17L109.475 273.391C109.384 271.772 109.267 270.16 109.195 268.541C109.443 270.14 109.651 271.746 109.873 273.352L109.899 273.541L109.697 273.574C108.511 273.743 107.319 273.886 106.133 274.042L106.394 273.769C106.335 275.862 106.283 277.956 106.192 280.044L105.912 286.319L105.892 286.748H105.462L100.57 286.735H100.114L100.14 286.28C100.296 283.392 100.479 280.505 100.694 277.618C100.798 276.175 100.882 274.731 101.019 273.294C101.137 271.837 101.247 270.394 101.397 268.957Z" fill="#343948"/>
<path d="M135.338 94.1156C135.338 94.1156 138.061 78.6785 148.595 83.9456C159.129 89.2192 150.484 115.503 135.416 113.422C135.416 113.422 132.413 108.174 135.338 94.1156Z" fill="#F7AB8D"/>
<path d="M122.654 172.01C128.133 174.559 132.257 184.332 143.527 204.223C140.771 208.463 133.325 211.422 127.69 217.697L118.244 203.112L122.654 172.01Z" fill="#EF3F54"/>
<path d="M65.1955 269.119L65.5212 258.117L132.237 255.782V269.399C100.224 274.848 65.1955 269.119 65.1955 269.119Z" fill="#2B2E3A"/>
<path d="M110.368 261.427H103.052C101.489 261.427 100.218 262.695 100.218 264.255V268.872C100.218 270.433 101.489 271.701 103.052 271.701H110.368" stroke="#545B72" stroke-width="4.0989" stroke-miterlimit="10" stroke-linejoin="round"/>
<path d="M110.928 266.564H105.293" stroke="#545B72" stroke-width="4.0989" stroke-miterlimit="10" stroke-linejoin="round"/>
<path d="M62.9804 180.984C64.2833 173.063 71.1888 167.302 79.2277 167.348C83.5795 167.367 89.0126 164.122 94.4067 164.851C102.087 165.969 117.149 169.611 122.647 172.017C131.774 192.077 128.243 234.526 133.878 263.137C120.914 264.451 85.6902 267.429 64.7719 263.007C71.0389 215.083 58.0945 210.707 62.9804 180.984Z" fill="#EF3F54"/>
<path d="M80.7008 164.343L81.8864 147.885L106.694 152.665C106.694 152.665 104.902 161.612 104.85 168.017C104.85 168.017 104.909 169.565 104.772 171.646C103.137 172.354 101.385 172.816 99.5995 172.764C95.4888 172.641 86.5639 167.796 80.7008 164.343Z" fill="#DC918B"/>
<path d="M99.6064 172.764C101.391 172.816 103.144 172.354 104.779 171.646C104.557 175.079 103.821 179.975 101.45 181.783C85.4372 180.379 80.5383 166.639 80.5383 166.639L80.7011 164.343C86.5642 167.796 95.4892 172.641 99.6064 172.764Z" fill="#FAC2A8"/>
<path d="M136.198 26.3067C147.195 26.5018 148.289 39.5394 149.481 45.1837C153.064 62.1879 146.217 91.3845 146.113 99.1095C146.113 99.116 118.244 25.9881 136.198 26.3067Z" fill="#2B2E3A"/>
<path d="M140.152 31.0666C140.152 31.0666 149.689 128.449 146.875 135.628C144.061 142.813 122.993 155.24 110.524 158.172C98.0548 161.112 71.3191 145.278 66.9673 140.492C64.6286 137.917 58.1336 114.586 52.9936 90.7472C48.5832 70.3031 34.9092 53.3054 35.9515 44.9041C35.958 44.8976 91.208 8.78228 140.152 31.0666Z" fill="#FAC2A8"/>
<path d="M135.202 82.0468C134.257 80.7332 133.319 79.4457 132.283 78.2753C131.755 77.703 131.228 77.1373 130.641 76.6756C130.068 76.2074 129.443 75.8108 128.804 75.6352C127.534 75.2191 126.277 76.0059 125.312 77.1828C124.335 78.3468 123.586 79.7644 122.785 81.1689C123.084 79.5758 123.573 78.0022 124.492 76.5781C124.941 75.8628 125.56 75.206 126.361 74.7249C127.169 74.2502 128.244 74.1266 129.156 74.3867C130.967 74.985 132.127 76.3245 133.071 77.651C134.016 79.0166 134.733 80.4926 135.202 82.0468Z" fill="#2B2E3A"/>
<path d="M98.0812 83.087C96.9346 81.7215 95.7359 80.4275 94.3939 79.3806C93.0715 78.3467 91.4884 77.5924 90.0618 78.002C89.3451 78.1776 88.6937 78.6328 88.1204 79.205C87.8142 79.4651 87.5667 79.8163 87.2931 80.1219C87.0651 80.4795 86.7914 80.7981 86.5699 81.1688C85.6514 82.6189 84.9087 84.2185 84.114 85.8181C84.3876 84.0494 84.8762 82.3132 85.684 80.6681C85.8664 80.2454 86.127 79.8618 86.3615 79.4586C86.6481 79.0815 86.8892 78.6848 87.2344 78.3402C87.8794 77.6379 88.7132 77.0137 89.723 76.734C90.7327 76.4674 91.8207 76.6105 92.7197 76.9941C93.6252 77.3908 94.3939 77.9565 95.0519 78.6003C96.3809 79.9073 97.3906 81.4354 98.0812 83.087Z" fill="#2B2E3A"/>
<path d="M62.0233 96.6971C62.0233 96.6971 63.5021 101.75 65.9842 106.705C72.0753 118.845 91.8535 103.993 119.873 107.927C127.234 108.961 129.879 110.983 137.664 111.887C148.12 113.097 145.266 92.555 145.305 88.751C147.143 112.186 151.866 129.451 147.599 138.84C144.465 145.74 123.456 159.434 105.723 159.766C90.9806 160.045 68.6291 150.148 64.3555 145.447C62.2839 143.164 57.6846 124.353 52.9485 103.525L48.8118 90.1815L62.0233 96.6971Z" fill="#2B2E3A"/>
<path d="M132.166 116.062C132.166 116.062 113.899 128.956 86.199 115.866C86.199 115.866 97.2347 141.09 113.808 139.932C130.772 136.961 122.003 127.265 132.166 116.062Z" fill="#31374C"/>
<path d="M97.9703 133.001C110.595 131.134 117.683 134.145 121.501 137.208C119.794 138.378 117.371 139.308 113.801 139.932C107.67 140.362 102.302 137.182 97.9703 133.001Z" fill="#F97A7A"/>
<path d="M132.166 116.062C129.091 119.456 128.629 120.99 127.945 122.655C120.622 125.672 109.033 129.268 90.8572 124.242C86.9028 118.734 86.1927 115.866 86.1927 115.866C113.899 128.956 132.166 116.062 132.166 116.062Z" fill="white"/>
<path d="M132.166 116.062C130.517 117.187 128.713 118.071 126.863 118.832C125.013 119.586 123.104 120.204 121.156 120.692C120.185 120.932 119.202 121.14 118.218 121.316C117.228 121.478 116.237 121.628 115.241 121.725C114.244 121.829 113.241 121.914 112.244 121.94C111.241 121.992 110.238 121.979 109.234 121.973C108.231 121.927 107.228 121.914 106.231 121.81C105.228 121.745 104.238 121.608 103.241 121.485C102.251 121.342 101.26 121.173 100.27 120.984C99.2866 120.776 98.3029 120.574 97.3387 120.308C96.3615 120.067 95.4039 119.781 94.4462 119.482C93.4821 119.209 92.544 118.838 91.5929 118.52C90.6483 118.182 89.7232 117.785 88.7916 117.427L86.0425 116.211L86.5376 115.73C87.1955 117.174 87.9447 118.604 88.7265 120.002C89.5147 121.4 90.3486 122.772 91.228 124.105C92.9935 126.778 94.9348 129.346 97.1433 131.655C99.3517 133.957 101.827 136.038 104.642 137.527C107.443 139.016 110.615 139.829 113.781 139.627L113.749 139.634C114.407 139.497 115.071 139.406 115.716 139.237C116.368 139.094 117.013 138.918 117.651 138.717C118.283 138.509 118.915 138.294 119.514 138.014C119.82 137.891 120.114 137.735 120.407 137.579C120.706 137.429 120.98 137.254 121.254 137.072C121.814 136.72 122.309 136.291 122.778 135.836C123.228 135.361 123.645 134.848 123.977 134.282C124.667 133.157 125.104 131.889 125.462 130.601C126.166 128.02 126.693 125.334 127.762 122.837C128.022 122.213 128.315 121.602 128.628 120.997C128.941 120.399 129.293 119.82 129.657 119.248C130.042 118.689 130.42 118.13 130.85 117.609C131.254 117.057 131.723 116.569 132.166 116.062ZM132.166 116.062C131.736 116.582 131.286 117.089 130.902 117.642C130.491 118.175 130.127 118.747 129.762 119.306C129.41 119.879 129.078 120.464 128.778 121.069C128.485 121.673 128.205 122.285 127.964 122.909C127.475 124.157 127.097 125.451 126.778 126.752C126.452 128.059 126.198 129.379 125.853 130.692C125.514 132 125.084 133.32 124.374 134.509C124.035 135.114 123.599 135.654 123.13 136.168C122.641 136.655 122.12 137.117 121.54 137.494C121.254 137.689 120.967 137.878 120.661 138.034C120.361 138.203 120.055 138.366 119.742 138.502C119.123 138.801 118.478 139.029 117.827 139.256C117.176 139.464 116.518 139.66 115.853 139.816C115.195 139.998 114.518 140.102 113.853 140.245H113.847H113.821C110.524 140.518 107.202 139.653 104.309 138.131C101.397 136.61 98.8566 134.49 96.5961 132.156C94.3355 129.808 92.3486 127.227 90.5701 124.515C89.6841 123.156 88.8437 121.764 88.0555 120.353C87.2672 118.936 86.5245 117.499 85.8535 116.01L85.4561 115.132L86.3486 115.528L89.0652 116.744C89.9903 117.109 90.8958 117.505 91.8339 117.843C92.772 118.169 93.6971 118.533 94.6482 118.812C95.5928 119.118 96.5439 119.404 97.5081 119.645C98.4592 119.918 99.4364 120.113 100.401 120.334C101.371 120.542 102.348 120.718 103.326 120.874C104.309 121.017 105.286 121.16 106.277 121.244C107.26 121.361 108.257 121.394 109.247 121.452C110.238 121.472 111.234 121.498 112.224 121.459C113.215 121.446 114.211 121.374 115.195 121.29C116.185 121.205 117.169 121.075 118.153 120.926C119.136 120.77 120.114 120.587 121.084 120.379C123.026 119.944 124.934 119.372 126.798 118.669C128.648 117.947 130.478 117.128 132.166 116.062Z" fill="#494F66"/>
<path d="M90.7263 114.429C90.7263 114.429 90.0618 114.364 89.1106 114.449C88.8761 114.468 88.6221 114.501 88.355 114.553C88.0879 114.585 87.8208 114.69 87.5406 114.742C87.2735 114.852 86.9869 114.924 86.7328 115.073C86.6025 115.145 86.4657 115.197 86.3354 115.281L85.9706 115.541C85.71 115.697 85.5211 115.938 85.2996 116.127C85.1107 116.361 84.9283 116.588 84.7524 116.809C84.6156 117.063 84.4592 117.297 84.3224 117.525C84.2117 117.772 84.1009 118.006 84.0032 118.22C83.899 118.435 83.8078 118.637 83.7557 118.825C83.6905 119.014 83.6319 119.176 83.5798 119.306C83.4755 119.579 83.4104 119.729 83.4104 119.729C83.4104 119.729 83.4169 119.566 83.4234 119.274C83.456 118.988 83.4234 118.559 83.5667 118.077C83.6254 117.83 83.684 117.564 83.7752 117.284C83.8925 117.017 84.0162 116.731 84.153 116.439C84.3289 116.166 84.5114 115.88 84.7263 115.613C84.9804 115.379 85.2019 115.093 85.5016 114.904L85.9446 114.611C86.0944 114.52 86.2573 114.455 86.4136 114.384C86.7198 114.215 87.0651 114.169 87.3712 114.072C87.6905 114.026 88.0032 113.961 88.2963 113.968C88.5895 113.948 88.8696 113.968 89.1172 114C90.1269 114.111 90.7263 114.429 90.7263 114.429Z" fill="#494F66"/>
<path opacity="0.2" d="M93.4565 92.7954C93.5607 94.7397 90.4076 96.5084 86.4272 96.7295C82.4403 96.957 79.1374 95.559 79.0332 93.6082C78.9355 91.6575 82.082 89.8953 86.0624 89.6742C90.0493 89.4466 93.3587 90.8446 93.4565 92.7954Z" fill="#EF3F54"/>
<path opacity="0.2" d="M141.28 88.2243C141.723 89.863 139.365 91.9113 136.01 92.7956C132.648 93.6865 129.567 93.0752 129.124 91.4301C128.681 89.7914 131.046 87.7431 134.401 86.8523C137.749 85.9679 140.83 86.5792 141.28 88.2243Z" fill="#EF3F54"/>
<path d="M138.303 60.6468C135.28 58.1693 131.944 56.5047 125.932 57.272C122.909 58.0328 119.671 58.644 121.919 55.0481C125.86 49.4819 139.13 53.2079 141.84 61.2255C143.417 64.6394 140.146 62.6041 138.303 60.6468Z" fill="#2B2E3A"/>
<path d="M78.0876 66.3365C80.2634 63.0917 82.9735 60.5362 88.9604 59.5348C92.0743 59.3918 95.3511 59.0341 92.159 56.2445C86.778 52.0569 75.1495 59.4438 74.8759 67.9101C74.3352 71.6361 76.8824 68.7425 78.0876 66.3365Z" fill="#2B2E3A"/>
<path opacity="0.6" d="M103.456 69.8933C103.456 69.8933 112.563 74.1395 121.892 72.5724C121.892 72.5724 112.556 88.081 125.273 105.306C125.273 105.306 113.951 112.264 104.25 105.488C104.244 105.482 109.026 87.7299 103.456 69.8933Z" fill="url(#paint0_linear_2603_4521)"/>
<path d="M62.023 96.6971C62.023 96.6971 57.4693 83.1003 63.4757 69.4904C67.8665 59.5414 59.1696 46.2111 54.2902 41.7114C54.2902 41.7114 36.4663 40.0597 35.5673 40.9701C30.0951 46.5168 23.9258 62.7277 43.4564 99.6038L62.023 96.6971Z" fill="#2B2E3A"/>
<path d="M56.0884 103.746C56.0884 103.746 49.5804 91.0137 40.5772 97.1001C31.5741 103.186 40.0756 134.106 61.1502 122.974C61.1502 122.974 65.6974 117.154 56.0884 103.746Z" fill="#FAC2A8"/>
<path d="M43.1696 108.616C42.896 107.862 42.7657 107.036 42.8178 106.197C42.8764 105.365 43.1566 104.474 43.7754 103.778C44.3878 103.069 45.2673 102.66 46.1272 102.465C46.9611 102.257 48.0099 102.25 48.8763 102.614C49.7623 102.946 50.4985 103.512 51.1108 104.136C51.7167 104.773 52.2183 105.469 52.6548 106.191C53.0978 106.906 53.443 107.667 53.7623 108.434C54.0684 109.208 54.3551 109.962 54.557 110.801L54.746 111.588L53.9838 111.77C53.0457 111.998 52.0554 112.368 51.2086 112.823C50.3551 113.272 49.606 113.916 49.5017 114.67C49.391 115.444 50.0034 116.354 50.7069 117.076C51.43 117.817 52.2704 118.474 53.1369 119.105C52.1467 118.695 51.1695 118.214 50.2835 117.557C49.8405 117.226 49.4105 116.855 49.0587 116.38C48.7135 115.912 48.4203 115.307 48.4203 114.612C48.4203 113.916 48.7461 113.272 49.1434 112.797C49.5408 112.316 50.0099 111.945 50.492 111.62C51.4757 110.99 52.4919 110.573 53.5994 110.229L53.0261 111.204C52.5701 109.787 51.9512 108.33 51.202 107.043C50.4529 105.755 49.5017 104.565 48.3096 103.999C47.1826 103.46 45.5213 103.655 44.479 104.474C43.4171 105.365 43.0719 107.043 43.1696 108.616Z" fill="#DC918B"/>
<path d="M125.266 105.3C125.266 105.3 113.762 123.338 104.244 105.482C104.244 105.482 114.954 108.09 125.266 105.3Z" fill="#DC918B"/>
<path d="M104.192 172.4C108.72 175.911 114.25 182.551 114.25 182.551C114.25 182.551 112.778 174.65 111.84 170.131C110.72 167.452 105.254 162.054 105.254 162.054C105.254 162.054 104.12 170.495 104.192 172.4Z" fill="#BD1A3B"/>
<path d="M61.7239 173.642C65.802 169.89 74.8246 168.459 74.8246 168.459C75.9517 167.673 87.5867 178.974 80.2904 188.325C76.3751 193.338 69.4045 210.414 63.9974 221.52C58.8509 214.634 47.1703 206.356 43.0271 204.23C49.6198 191.166 55.3787 179.475 61.7239 173.642Z" fill="#EF3F54"/>
<path d="M117.671 199.073C117.436 199.08 117.273 199.171 117.091 199.451L114.928 202.747L113.853 199.698C113.742 199.392 113.534 199.295 113.345 199.308C113.058 199.327 112.921 199.451 112.785 199.724L110.954 203.97L112.107 203.905L113.345 200.979L114.374 203.781L115.338 203.729L117.286 200.777L117.436 203.612L118.426 203.56L118.198 199.594C118.172 199.204 117.918 199.067 117.671 199.073Z" fill="white"/>
<path d="M109.358 200.27L108.635 204.1L109.691 204.041L110.401 200.211L109.358 200.27Z" fill="white"/>
<path d="M107.619 201.447C107.651 200.94 107.326 200.381 106.27 200.439L104.231 200.55L103.521 204.38L104.563 204.321L104.831 202.884L105.365 202.852L106.368 204.217L107.508 204.152L106.388 202.702C107.306 202.435 107.593 201.948 107.619 201.447ZM105.703 202.195L104.961 202.234L105.176 201.076L105.964 201.031C106.381 201.005 106.609 201.193 106.589 201.551C106.563 201.928 106.212 202.169 105.703 202.195Z" fill="white"/>
<path d="M122.766 203.32L123.769 203.261L122.622 199.828C122.472 199.438 122.225 199.347 121.964 199.379C121.801 199.399 121.638 199.477 121.482 199.717L119.182 203.508L120.205 203.45L120.668 202.65L122.531 202.546L122.766 203.32ZM121.065 202.006L121.906 200.569L122.336 201.935L121.065 202.006Z" fill="white"/>
<path d="M126.902 202.39C126.055 202.422 125.547 201.974 125.579 201.363C125.625 200.537 126.348 199.997 127.397 199.951C127.703 199.938 128.107 199.938 128.472 200.01L128.615 199.243C128.316 199.191 127.807 199.165 127.475 199.178C125.677 199.275 124.583 200.166 124.511 201.408C124.446 202.507 125.267 203.248 126.928 203.157C127.26 203.138 127.553 203.092 127.957 203.008L128.114 202.169C127.729 202.292 127.417 202.37 126.902 202.39Z" fill="white"/>
<path d="M142.029 17.4048C133.156 10.8697 116.374 -2.35005 98.3812 0.361521C89.4693 1.85711 83.2414 3.52177 76.5705 8.35968C77.1633 6.80557 82.5639 2.05219 82.1209 1.04429C81.5736 -0.210706 34.8838 18.6988 35.5678 40.9831C33.3333 44.1628 32.1607 46.5428 32.2128 47.5637C32.4669 52.4211 64.8117 70.5048 61.3264 58.8912C57.9518 49.1308 56.9356 48.0449 60.4795 44.8001C66.8377 38.9478 78.844 36.9255 107.371 41.2627C120.746 43.298 161.67 39.2599 158.895 23.6017C158.888 23.6017 150.902 23.9398 142.029 17.4048Z" fill="#2B2E3A"/>
<path d="M105.553 168.993L100.504 180.983L85.2277 168.934L81.6577 172.738L101.573 188.812L106.921 174.747L105.553 168.993Z" fill="#BD1A3B"/>
<path d="M80.2377 161.625C80.2377 161.625 86.2962 169.812 93.8857 175.762C92.8694 177.979 83.6578 183.903 83.6578 183.903L73.3257 167.4L80.2377 161.625Z" fill="#BD1A3B"/>
<path d="M75.6712 199.431C75.3585 199.776 75.1696 200.218 74.9546 200.634C74.7396 201.05 74.5442 201.479 74.3422 201.896L73.1501 204.438C72.3618 206.135 71.5475 207.826 70.7006 209.497C70.2836 210.336 69.7885 211.142 69.3195 211.949L68.5833 213.152C68.4596 213.353 68.3293 213.548 68.2185 213.756L67.9058 214.387C67.0589 216.065 66.1534 217.716 65.0785 219.29C65.5801 217.45 66.2642 215.688 66.9938 213.958C67.3847 213.106 67.6909 212.202 68.0557 211.324C68.4205 210.446 68.7918 209.582 69.2218 208.743C70.1012 207.072 71.0263 205.427 72.0686 203.84C72.5898 203.047 73.124 202.26 73.7103 201.505C73.997 201.122 74.3031 200.758 74.6158 200.394C74.922 200.049 75.2412 199.665 75.6712 199.431Z" fill="#BD1A3B"/>
<path d="M127.065 189.69C128.153 193.963 128.785 198.319 129.208 202.696C129.612 207.072 129.821 211.487 129.443 215.876C129.3 213.678 129.117 211.5 128.935 209.315L128.303 202.78L127.625 196.245C127.41 194.073 127.228 191.888 127.065 189.69Z" fill="#BD1A3B"/>
<defs>
<linearGradient id="paint0_linear_2603_4521" x1="105.924" y1="68.9946" x2="119.669" y2="107.662" gradientUnits="userSpaceOnUse">
<stop stop-color="#FAC2A8"/>
<stop offset="0.2651" stop-color="#F7BCA5"/>
<stop offset="0.6038" stop-color="#EDAD9B"/>
<stop offset="0.981" stop-color="#DD938C"/>
<stop offset="1" stop-color="#DC918B"/>
</linearGradient>
</defs>
</svg>
