<svg width="360" height="208" viewBox="0 0 360 208" fill="none" xmlns="http://www.w3.org/2000/svg">
<path d="M375.755 187.298C375.755 187.298 356.781 195.86 337.806 194.934C318.832 194.009 315.361 187.298 315.361 187.298C315.361 187.298 342.743 178.66 375.755 187.298Z" fill="#D0D5F4"/>
<path d="M315.439 187.298C315.439 187.298 318.91 194.009 337.884 194.934C356.858 195.86 375.833 187.298 375.833 187.298C395.424 227.638 391.722 252.552 367.348 263.659H324C298.315 252.475 292.762 228.718 315.439 187.298Z" fill="#E1E4F4"/>
<path d="M315.438 194.086C322.997 206.658 350.61 203.573 372.516 197.634C372.516 197.634 321.454 218.768 315.438 194.086Z" fill="#D0D5F4"/>
<path d="M302.635 168.941C302.635 184.522 322.227 197.171 346.446 197.171C370.665 197.171 390.257 184.522 390.257 168.941V163.85C390.257 148.27 370.665 135.62 346.446 135.62C322.227 135.62 302.635 148.27 302.635 163.85V168.941Z" fill="#D0D5F4"/>
<path d="M291.218 170.792C284.354 168.247 295.692 165.702 298.16 166.396C301.631 167.321 313.664 173.877 306.413 178.197C310.81 180.279 316.286 181.282 319.603 185.139C325.002 191.772 317.058 193.392 312.353 188.455C310.81 195.937 286.282 188.224 300.629 184.367C297.775 183.673 291.527 186.296 289.29 184.213C283.582 178.891 298.546 177.04 300.629 176.963C297.389 174.495 295.384 172.258 291.218 170.792C287.825 169.481 294.689 172.026 291.218 170.792Z" fill="#D0D5F4"/>
<path d="M319.372 191.464C316.518 190.769 310.271 193.469 308.034 191.309C302.326 185.987 317.29 184.136 319.372 184.059C316.133 181.514 314.127 179.277 309.962 177.811C306.568 176.5 313.433 179.045 309.962 177.811C303.097 175.266 314.436 172.721 316.904 173.415C320.375 174.34 332.408 180.897 325.157 185.216C329.554 187.298 335.03 188.301 338.347 192.158C343.746 198.791 335.801 200.411 331.096 195.474C329.554 202.956 305.026 195.243 319.372 191.464Z" fill="#E1E4F4"/>
<path d="M300.937 153.592C296.077 149.272 306.259 150.815 308.11 152.203C310.655 154.055 318.445 163.465 311.118 164.622C314.049 167.784 318.291 170.329 319.757 174.649C322.071 181.899 314.975 180.665 312.661 175.034C308.958 180.742 291.218 166.396 304.253 167.861C302.094 166.319 296.077 166.55 294.92 164.082C291.989 157.834 304.947 161.151 306.644 161.768C304.793 158.605 303.868 156.137 300.937 153.592C298.546 151.432 303.405 155.752 300.937 153.592Z" fill="#E1E4F4"/>
<path d="M305.334 150.198C300.937 144.336 313.278 145.339 315.438 145.647C313.124 143.95 309.576 137.548 313.355 134.926C316.441 132.766 319.757 140.402 321.763 141.945C324.231 137.008 328.01 131.532 333.332 129.449C338.423 127.521 346.213 132.072 340.583 137.857C335.724 142.87 329.09 143.487 324.539 150.198C321.3 154.98 319.14 147.421 317.289 146.65C321.917 152.435 308.65 154.672 305.334 150.198C304.562 149.195 306.645 151.972 305.334 150.198Z" fill="#D0D5F4"/>
<path d="M384.163 179.277C391.027 176.731 379.689 174.186 377.221 174.88C373.75 175.806 361.717 182.362 368.968 186.681C364.571 188.764 359.095 189.767 355.778 193.623C350.379 200.256 358.323 201.876 363.029 196.94C364.571 204.422 389.099 196.708 374.753 192.852C377.606 192.158 383.854 194.78 386.091 192.698C391.799 187.375 376.835 185.524 374.753 185.447C377.992 182.979 379.998 180.742 384.163 179.277C387.556 178.042 380.692 180.511 384.163 179.277Z" fill="#E1E4F4"/>
<path d="M388.867 151.664C393.263 145.801 380.922 146.804 378.763 147.113C381.077 145.416 384.625 139.014 380.845 136.391C377.76 134.232 374.443 141.868 372.438 143.41C369.97 138.474 366.19 132.998 360.868 130.915C355.777 128.987 347.987 133.538 353.618 139.322C358.477 144.336 365.11 144.953 369.661 151.664C372.901 156.446 375.06 148.887 376.911 148.115C372.284 153.977 385.473 156.137 388.867 151.664C389.561 150.661 387.478 153.515 388.867 151.664Z" fill="#D0D5F4"/>
<path d="M290.68 167.476C285.358 162.385 297.776 161.382 299.936 161.382C297.391 160.071 292.84 154.286 296.156 151.124C298.856 148.501 303.33 155.52 305.567 156.677C307.263 151.355 310.117 145.416 314.977 142.485C319.682 139.708 328.166 143.025 323.538 149.581C319.527 155.289 313.125 156.908 309.655 164.39C307.263 169.635 303.87 162.539 301.941 161.999C307.418 167.09 294.691 171.409 290.68 167.476C289.754 166.627 292.3 169.095 290.68 167.476Z" fill="#F7F7FA"/>
<path d="M359.79 169.79C352.925 167.244 364.264 164.699 366.732 165.393C370.203 166.319 382.235 172.875 374.985 177.194C379.382 179.277 384.858 180.279 388.175 184.136C393.574 190.769 385.629 192.389 380.924 187.453C379.382 194.934 354.854 187.221 369.2 183.365C366.346 182.671 360.099 185.293 357.862 183.21C352.154 177.888 367.118 176.037 369.2 175.96C365.961 173.492 363.878 171.255 359.79 169.79C356.396 168.555 363.261 171.024 359.79 169.79Z" fill="#E1E4F4"/>
<path d="M347.294 198.097C341.278 202.262 345.752 191.541 347.68 189.921C350.38 187.607 362.721 181.591 362.104 189.921C366.346 187.53 370.28 183.596 375.37 183.21C383.932 182.593 380.615 189.998 373.905 191.078C379.15 196.631 358.71 212.212 363.801 198.328C361.564 200.256 360.175 206.89 357.167 207.507C349.531 209.049 356.627 195.783 357.784 194.009C353.851 195.166 350.92 195.551 347.294 198.097C344.286 200.102 350.38 195.937 347.294 198.097Z" fill="#F7F7FA"/>
<path d="M346.523 180.434C348.759 176.114 359.095 182.13 357.552 186.373C355.393 192.852 344.517 184.29 346.523 180.434C347.294 178.968 345.906 181.591 346.523 180.434Z" fill="#E1E4F4"/>
<path d="M340.275 177.425C342.434 177.888 349.145 181.591 342.666 183.519C335.647 185.679 334.952 176.577 340.275 177.425C341.432 177.734 336.109 176.731 340.275 177.425Z" fill="#F7F7FA"/>
<path d="M314.898 167.553C313.818 169.481 308.419 174.88 308.342 168.17C308.265 160.765 317.289 162.693 314.898 167.553C314.358 168.555 316.749 163.773 314.898 167.553Z" fill="#F7F7FA"/>
<path d="M328.705 166.087C328.011 167.321 324.54 170.792 324.463 166.473C324.463 161.768 330.248 162.925 328.705 166.087C328.319 166.781 329.939 163.619 328.705 166.087Z" fill="#F7F7FA"/>
<path d="M-74.8049 243.293C-74.8049 243.293 -79.2014 216.22 -62.3096 208.969L-46.1119 203.185C-46.1119 203.185 -19.5785 187.912 -13.1766 176.266C-11.3254 172.872 -10.6313 169.015 -8.08591 165.621C-2.22389 157.754 6.33773 156.443 15.6707 155.748C41.5098 153.82 67.6575 152.663 93.5738 152.278C118.102 151.969 142.784 153.126 167.235 156.134C182.738 158.062 196.082 163.462 195.388 164.541L92.4168 285.099C80.23 284.636 70.5114 286.333 58.3246 285.87C34.9537 284.944 9.11449 283.402 -14.2565 282.553C-29.7599 282.09 -46.4204 282.862 -61.7696 280.702C-70.3313 279.545 -73.8022 271.292 -73.3394 263.116L-74.8049 243.293Z" fill="#E1E4F4"/>
<path d="M11.1208 159.682C8.4983 160.685 6.26145 162.613 4.48742 164.773C2.71339 166.933 1.24788 169.478 0.245171 172.1C-1.83739 177.422 -2.76293 183.053 -2.99433 188.761C-3.14859 194.391 -3.07147 199.945 -3.1486 205.576L-3.30288 222.39L-2.60867 221.619C-8.70208 222.776 -14.7955 224.01 -20.8889 225.398C-23.8971 226.093 -26.9823 226.787 -29.9905 227.481C-32.9986 228.175 -36.0068 228.946 -39.0149 229.795L-29.8362 228.098L-20.6575 226.478L-2.30017 223.239L-1.60596 223.084V222.39C-1.4517 216.76 -1.3746 211.206 -1.29747 205.576V197.168C-1.29747 194.391 -1.37458 191.538 -1.37458 188.761C-1.29745 183.207 -0.603245 177.654 1.24792 172.486C2.1735 169.864 3.40758 167.395 5.02735 165.158C5.8758 164.079 6.72428 162.999 7.80412 162.073C8.72971 161.071 9.88667 160.222 11.1208 159.682Z" fill="#D0D5F4"/>
<path d="M186.133 256.174C176.338 289.958 151.27 285.638 151.27 285.638L73.4437 285.87C83.4709 284.327 85.0135 258.565 85.0135 258.565C84.5507 218.919 145.253 205.653 145.253 205.653C165.77 156.134 195.312 164.619 195.312 164.619C195.312 164.619 207.962 180.816 186.133 256.174Z" fill="#D0D5F4"/>
<path d="M186.133 256.174C176.337 289.958 151.269 285.638 151.269 285.638L73.4432 285.87C83.4704 284.327 85.013 258.565 85.013 258.565C84.5502 218.919 145.253 205.653 145.253 205.653C165.77 156.134 195.311 164.619 195.311 164.619C195.311 164.619 207.961 180.816 186.133 256.174Z" fill="#D0D5F4"/>
<path d="M374.201 79.2337H300V-11.2419H374.201V79.2337ZM304.551 74.6058H369.496V-6.61403H304.551V74.6058Z" fill="#E1E4F4"/>
<path d="M360.703 4.80151H313.344V63.1903H360.703V4.80151Z" fill="#E1E4F4"/>
</svg>
