<svg width="320" height="353" viewBox="0 0 320 353" fill="none" xmlns="http://www.w3.org/2000/svg">
<mask id="mask0_2603_4324" style="mask-type:alpha" maskUnits="userSpaceOnUse" x="0" y="0" width="320" height="353">
<rect width="320" height="353" fill="#C4C4C4"/>
</mask>
<g mask="url(#mask0_2603_4324)">
<path d="M32 323.511H1022.06V327.368H32V323.511Z" fill="#E1E4F4"/>
<path d="M67.172 269.442C67.172 269.442 86.1464 278.004 105.121 277.078C124.095 276.152 127.566 269.442 127.566 269.442C127.566 269.442 100.184 260.803 67.172 269.442Z" fill="#D0D5F4"/>
<path d="M127.489 269.442C127.489 269.442 124.018 276.152 105.043 277.078C86.0688 278.004 67.0944 269.442 67.0944 269.442C47.5029 309.782 51.2052 334.695 75.5789 345.802H118.927C144.612 334.618 150.165 310.862 127.489 269.442Z" fill="#E1E4F4"/>
<path d="M127.489 276.229C119.93 288.802 92.317 285.717 70.4116 279.778C70.4116 279.778 121.473 300.912 127.489 276.229Z" fill="#D0D5F4"/>
<path d="M140.292 251.085C140.292 266.665 120.701 279.315 96.4811 279.315C72.2618 279.315 52.6702 266.665 52.6702 251.085V245.994C52.6702 230.413 72.2618 217.764 96.4811 217.764C120.701 217.764 140.292 230.413 140.292 245.994V251.085Z" fill="#D0D5F4"/>
<path d="M151.709 252.936C158.573 250.39 147.235 247.845 144.767 248.539C141.296 249.465 129.263 256.021 136.514 260.34C132.117 262.423 126.641 263.426 123.324 267.282C117.925 273.916 125.869 275.535 130.574 270.599C132.117 278.081 156.645 270.368 142.299 266.511C145.152 265.817 151.4 268.439 153.637 266.357C159.345 261.035 144.381 259.183 142.299 259.106C145.538 256.638 147.543 254.401 151.709 252.936C155.102 251.625 148.238 254.17 151.709 252.936Z" fill="#D0D5F4"/>
<path d="M123.555 273.607C126.409 272.913 132.656 275.613 134.893 273.453C140.601 268.131 125.637 266.28 123.555 266.202C126.794 263.657 128.8 261.42 132.965 259.955C136.359 258.644 129.494 261.189 132.965 259.955C139.83 257.409 128.491 254.864 126.023 255.558C122.552 256.484 110.519 263.04 117.77 267.359C113.373 269.442 107.897 270.445 104.58 274.301C99.1811 280.935 107.126 282.554 111.831 277.618C113.373 285.1 137.901 277.387 123.555 273.607Z" fill="#E1E4F4"/>
<path d="M141.99 235.735C146.85 231.416 136.668 232.959 134.817 234.347C132.272 236.198 124.482 245.608 131.809 246.765C128.878 249.928 124.636 252.473 123.17 256.792C120.856 264.043 127.953 262.809 130.266 257.178C133.969 262.886 151.709 248.539 138.674 250.005C140.833 248.462 146.85 248.694 148.007 246.225C150.938 239.978 137.98 243.294 136.283 243.911C138.134 240.749 139.059 238.281 141.99 235.735C144.382 233.576 139.522 237.895 141.99 235.735Z" fill="#E1E4F4"/>
<path d="M137.594 232.341C141.99 226.479 129.649 227.482 127.489 227.791C129.803 226.094 133.351 219.692 129.572 217.069C126.487 214.91 123.17 222.546 121.164 224.088C118.696 219.152 114.917 213.676 109.595 211.593C104.504 209.665 96.7137 214.216 102.344 220C107.204 225.014 113.837 225.631 118.388 232.341C121.627 237.124 123.787 229.565 125.638 228.793C121.01 234.578 134.277 236.815 137.594 232.341C138.365 231.339 136.282 234.116 137.594 232.341Z" fill="#D0D5F4"/>
<path d="M58.7644 261.42C51.8997 258.875 63.238 256.329 65.7063 257.024C69.1772 257.949 81.2098 264.505 73.9594 268.825C78.3559 270.907 83.8323 271.91 87.1489 275.767C92.5482 282.4 84.6036 284.02 79.8985 279.083C78.3559 286.565 53.828 278.852 68.1745 274.995C65.3207 274.301 59.0729 276.924 56.8361 274.841C51.1283 269.519 66.092 267.668 68.1745 267.591C64.935 265.122 62.9295 262.886 58.7644 261.42C55.3706 260.186 62.2353 262.654 58.7644 261.42Z" fill="#E1E4F4"/>
<path d="M49.739 237.278C44.8797 232.958 55.061 234.501 56.9122 235.889C59.4575 237.741 67.2479 247.151 59.9204 248.308C62.8514 251.47 67.0937 254.015 68.5592 258.335C70.8731 265.585 63.7769 264.351 61.463 258.721C57.7607 264.428 40.0203 250.082 53.0556 251.547C50.8959 250.005 44.8797 250.236 43.7227 247.768C40.7917 241.52 53.7499 244.837 55.4468 245.454C53.5956 242.291 52.67 239.823 49.739 237.278C47.2708 235.118 52.2072 239.438 49.739 237.278Z" fill="#D0D5F4"/>
<path d="M54.0602 233.807C49.6637 227.945 62.0047 228.948 64.1644 229.256C61.8505 227.559 58.3024 221.157 62.0819 218.535C65.1672 216.375 68.4839 224.011 70.4893 225.554C72.9575 220.618 76.737 215.141 82.0591 213.059C87.1498 211.13 94.94 215.681 89.3094 221.466C84.4501 226.48 77.8168 227.097 73.266 233.807C70.0265 238.589 67.8668 231.03 66.0156 230.259C70.6435 236.121 57.454 238.281 54.0602 233.807C53.366 232.804 55.4485 235.658 54.0602 233.807Z" fill="#D0D5F4"/>
<path d="M73.7268 239.746C69.5617 233.73 66.6307 245.84 66.2451 247.999C65.3195 245.3 60.383 239.9 56.6807 242.677C53.6726 244.914 59.8431 250.467 60.7687 252.859C55.2923 253.707 48.9675 255.558 45.2652 259.955C41.7942 264.197 43.7226 273.067 50.9729 269.519C57.2978 266.434 59.8431 260.34 67.7105 258.104C73.264 256.484 66.7078 252.164 66.5535 250.082C70.7187 256.252 76.9664 244.374 73.7268 239.746C73.0326 238.821 75.0381 241.674 73.7268 239.746Z" fill="#F7F7FA"/>
<path d="M152.247 249.619C157.569 244.528 145.151 243.526 142.991 243.526C145.537 242.214 150.087 236.43 146.771 233.267C144.071 230.645 139.597 237.664 137.361 238.821C135.664 233.499 132.81 227.559 127.951 224.628C123.246 221.852 114.761 225.168 119.389 231.725C123.4 237.432 129.802 239.052 133.273 246.534C135.664 251.779 139.057 244.683 140.986 244.143C135.509 249.233 148.236 253.553 152.247 249.619C153.173 248.771 150.627 251.239 152.247 249.619Z" fill="#F7F7FA"/>
<path d="M83.1369 251.933C90.0017 249.388 78.6633 246.842 76.1951 247.537C72.7241 248.462 60.6916 255.018 67.942 259.338C63.5455 261.42 58.0692 262.423 54.7525 266.28C49.3533 272.913 57.2979 274.533 62.0029 269.596C63.5455 277.078 88.0734 269.365 73.7269 265.508C76.5808 264.814 82.8284 267.437 85.0652 265.354C90.773 260.032 75.8095 258.181 73.7269 258.104C76.9664 255.635 79.049 253.399 83.1369 251.933C86.5307 250.699 79.666 253.167 83.1369 251.933Z" fill="#E1E4F4"/>
<path d="M95.6328 280.24C101.649 284.405 97.1754 273.684 95.2471 272.064C92.5475 269.75 80.2064 263.734 80.8234 272.064C76.5812 269.673 72.6475 265.74 67.5568 265.354C58.9951 264.737 62.3118 272.141 69.0223 273.221C63.7773 278.775 84.2172 294.355 79.1265 280.472C81.3634 282.4 82.7517 289.033 85.7599 289.65C93.3959 291.193 86.2998 277.926 85.1429 276.152C89.0766 277.309 92.0076 277.695 95.6328 280.24C98.6409 282.246 92.5475 278.081 95.6328 280.24Z" fill="#F7F7FA"/>
<path d="M96.4044 262.577C94.1676 258.258 83.8319 264.274 85.3746 268.516C87.5342 274.995 98.4099 266.434 96.4044 262.577C95.6331 261.112 97.0215 263.734 96.4044 262.577Z" fill="#E1E4F4"/>
<path d="M102.653 259.569C100.493 260.032 93.7825 263.734 100.262 265.662C107.281 267.822 107.975 258.721 102.653 259.569C101.496 259.878 106.818 258.875 102.653 259.569Z" fill="#F7F7FA"/>
<path d="M128.029 249.696C129.109 251.624 134.508 257.024 134.585 250.313C134.662 242.908 125.638 244.837 128.029 249.696C128.569 250.699 126.178 245.917 128.029 249.696Z" fill="#F7F7FA"/>
<path d="M114.222 248.231C114.916 249.465 118.387 252.936 118.464 248.616C118.464 243.911 112.68 245.068 114.222 248.231C114.608 248.925 112.988 245.763 114.222 248.231Z" fill="#F7F7FA"/>
<path d="M172.302 310.245C172.302 310.245 157.955 345.185 170.219 338.629L188.268 311.401C188.268 311.479 177.778 305.385 172.302 310.245Z" fill="#D0D5F4"/>
<path d="M254.755 312.096C254.755 312.096 240.023 352.282 252.287 344.646L270.644 313.253C270.644 313.253 260.231 306.388 254.755 312.096Z" fill="#D0D5F4"/>
<path d="M414.805 271.293C414.805 271.293 419.201 244.22 402.31 236.969L386.112 231.185C386.112 231.185 359.579 215.912 353.177 204.266C351.325 200.872 350.631 197.015 348.086 193.621C342.224 185.754 333.662 184.443 324.329 183.748C298.49 181.82 272.343 180.663 246.426 180.278C221.898 179.969 197.216 181.126 172.765 184.134C157.262 186.062 143.918 191.462 144.612 192.541L247.583 313.099C259.77 312.636 269.489 314.333 281.675 313.87C305.046 312.944 330.886 311.402 354.257 310.553C369.76 310.09 386.42 310.862 401.77 308.702C410.331 307.545 413.802 299.292 413.339 291.116L414.805 271.293Z" fill="#E1E4F4"/>
<path d="M342.532 250.313C337.287 249.311 331.888 248.694 326.566 248.077C323.866 247.845 321.166 247.614 318.544 247.459L314.533 247.228L310.522 247.074C299.724 246.688 288.925 246.92 278.204 247.537C275.504 247.691 272.805 247.999 270.182 248.154L266.171 248.462L262.161 248.925L254.139 249.851C251.439 250.236 248.817 250.622 246.117 251.085L242.106 251.702C240.795 251.933 239.484 252.164 238.095 252.396L230.151 253.861L228.145 254.247L226.14 254.71L222.206 255.635C219.584 256.252 216.961 256.87 214.339 257.487C219.661 256.638 224.906 255.558 230.228 254.71L238.173 253.476C239.484 253.244 240.795 253.013 242.183 252.859L246.194 252.396L254.216 251.393L262.238 250.545L266.249 250.159L270.259 249.851C272.959 249.619 275.581 249.388 278.281 249.233L286.303 248.771C289.002 248.616 291.702 248.616 294.325 248.462C297.024 248.308 299.724 248.308 302.346 248.308L306.357 248.231H310.368H314.379L318.39 248.385C321.089 248.462 323.789 248.616 326.411 248.694C331.811 249.311 337.21 249.696 342.532 250.313Z" fill="#D0D5F4"/>
<path d="M153.867 284.174C163.663 317.958 188.73 313.638 188.73 313.638L266.556 313.87C256.529 312.327 254.987 286.565 254.987 286.565C255.449 246.919 194.747 233.653 194.747 233.653C174.23 184.134 144.688 192.619 144.688 192.619C144.688 192.619 132.038 208.816 153.867 284.174Z" fill="#D0D5F4"/>
<path d="M153.867 284.174C163.663 317.958 188.731 313.638 188.731 313.638L266.557 313.87C256.53 312.327 254.987 286.565 254.987 286.565C255.45 246.919 194.747 233.653 194.747 233.653C174.23 184.134 144.689 192.619 144.689 192.619C144.689 192.619 132.039 208.816 153.867 284.174Z" fill="#D0D5F4"/>
<path d="M93.7829 107.234H167.984V16.7583H93.7829V107.234ZM163.433 102.606H98.488V21.3862H163.433V102.606Z" fill="#E1E4F4"/>
<path d="M107.281 32.8015H154.639V91.1903H107.281V32.8015Z" fill="#E1E4F4"/>
</g>
</svg>
